<svg xmlns="http://www.w3.org/2000/svg" width="150" height="150" fill="none"><g clip-path="url(#a)"><path fill="#141D2F" d="m17.171 91.64 17.05 28.869 40.81 25.626 36.401-24.91 21.457-31.521V44.892L75.03 78.69 17.171 44.892v46.747Z"/><path stroke="#4D7DF6" stroke-miterlimit="10" stroke-width=".339" d="M132.596 49.044 74.727 82.841 16.868 49.044"/><path stroke="#4D7DF6" stroke-miterlimit="10" stroke-width=".339" d="M132.596 54.397 74.727 88.195 16.868 54.397"/><path stroke="#4D7DF6" stroke-miterlimit="10" stroke-width=".339" d="M132.596 59.74 74.727 93.53 16.868 59.74"/><path stroke="#4D7DF6" stroke-miterlimit="10" stroke-width=".339" d="M132.596 65.084 74.727 98.883 16.868 65.084"/><path stroke="#4D7DF6" stroke-miterlimit="10" stroke-width=".339" d="m132.596 70.438-57.869 33.798-57.859-33.798"/><path stroke="#4D7DF6" stroke-miterlimit="10" stroke-width=".339" d="m132.596 75.781-57.869 33.798-57.859-33.798"/><path stroke="#4D7DF6" stroke-miterlimit="10" stroke-width=".339" d="m132.596 81.135-57.869 33.788-57.859-33.788"/><path stroke="#4D7DF6" stroke-miterlimit="10" stroke-width=".339" d="m132.596 86.478-57.869 33.798-57.859-33.798"/><path stroke="#4D7DF6" stroke-miterlimit="10" stroke-width=".339" d="M132.596 91.832 74.727 125.63 16.868 91.832"/><path fill="url(#b)" d="M16.868 28.284v59.143l11.458 21.905 46.401 38.228 48.75-41.938 9.119-21.661V28.799L72.01 5.185"/><path stroke="#4D7DF6" stroke-miterlimit="10" stroke-width=".339" d="m26.93 113.741 48.09-28.09 46.92 27.403"/><path stroke="#4D7DF6" stroke-miterlimit="10" stroke-width=".339" d="M125.707 109.903 75.03 80.296l-46.1 26.932"/><path stroke="#4D7DF6" stroke-miterlimit="10" stroke-width=".339" d="m22.16 105.832 52.87-30.88 52.909 30.9"/><path stroke="#4D7DF6" stroke-miterlimit="10" stroke-width=".339" d="M125.857 99.291 75.03 69.61 24.33 99.218"/><path stroke="#4D7DF6" stroke-miterlimit="10" stroke-width=".339" d="M125.25 93.592 75.03 64.256 22.265 95.079"/><path stroke="#4D7DF6" stroke-miterlimit="10" stroke-width=".339" d="m17.171 92.71 57.86-33.797 57.858 33.798"/><path stroke="#4D7DF6" stroke-miterlimit="10" stroke-width=".339" d="m17.171 87.357 57.86-33.798 57.858 33.798"/><path stroke="#4D7DF6" stroke-miterlimit="10" stroke-width=".339" d="m17.171 82.004 57.86-33.799 57.858 33.799"/><path stroke="#4D7DF6" stroke-miterlimit="10" stroke-width=".339" d="m17.171 76.65 57.86-33.788 57.858 33.788"/><path stroke="#4D7DF6" stroke-miterlimit="10" stroke-width=".339" d="m17.171 71.317 57.86-33.799 57.858 33.799"/><path stroke="#4D7DF6" stroke-miterlimit="10" stroke-width=".339" d="m17.171 65.933 57.86-33.799 57.858 33.799"/><path stroke="#4D7DF6" stroke-miterlimit="10" stroke-width=".339" d="m17.171 60.61 57.86-33.799 57.858 33.798"/><path stroke="#4D7DF6" stroke-miterlimit="10" stroke-width=".339" d="m17.171 55.266 57.86-33.809 57.858 33.809"/><path stroke="#4D7DF6" stroke-miterlimit="10" stroke-width=".339" d="m17.171 49.912 57.86-33.788 57.858 33.788"/><path stroke="#4D7DF6" stroke-miterlimit="10" stroke-width=".339" d="m17.171 44.569 57.86-33.799 57.858 33.799"/><path stroke="#4D7DF6" stroke-miterlimit="10" stroke-width=".339" d="m17.171 39.215 57.86-33.798 57.858 33.798"/><path fill="url(#c)" d="m34.99 117.933 38.904 24.219 39.428-23.64 1.648-29.115-39.99 23.354-39.99-23.354v28.536Z"/><path stroke="#4D7DF6" stroke-miterlimit="10" stroke-width=".339" d="m114.808 92.266-39.98 23.354-39.98-23.354"/><path stroke="#4D7DF6" stroke-miterlimit="10" stroke-width=".339" d="m114.808 95.963-39.98 23.354-39.98-23.354"/><path stroke="#4D7DF6" stroke-miterlimit="10" stroke-width=".339" d="m114.808 99.66-39.98 23.354-39.98-23.354"/><path stroke="#4D7DF6" stroke-miterlimit="10" stroke-width=".339" d="m114.808 103.357-39.98 23.354-39.98-23.354"/><path stroke="#4D7DF6" stroke-miterlimit="10" stroke-width=".339" d="m114.808 107.054-39.98 23.354-39.98-23.354"/><path stroke="#4D7DF6" stroke-miterlimit="10" stroke-width=".339" d="m114.808 110.741-39.98 23.364-39.98-23.364"/><path stroke="#4D7DF6" stroke-miterlimit="10" stroke-width=".339" d="m114.808 114.418-39.98 23.354-39.98-23.354"/><path stroke="#4D7DF6" stroke-miterlimit="10" stroke-width=".339" d="m114.808 118.145-39.98 23.354-39.98-23.354"/><path stroke="#4D7DF6" stroke-miterlimit="10" stroke-width=".339" d="m114.808 121.842-39.98 23.354-39.98-23.354M35.01 26.993 75 3.639l39.979 23.354"/><path fill="url(#d)" d="m33.919 56.963 41.06 23.364 41.062-23.364V22.357L74.811 4.835 33.92 21.928v35.035Z"/><path stroke="#4D7DF6" stroke-miterlimit="10" stroke-width=".339" d="m62.012 9.029 12.766 7.459 10.872-6.353"/><path stroke="#4D7DF6" stroke-miterlimit="10" stroke-width=".339" d="m68.775 9.029 6.072 3.548 5.173-3.022"/><path stroke="#4D7DF6" stroke-miterlimit="10" stroke-width=".339" d="m61.627 12.478 13.151 7.686 13.923-8.124"/><path stroke="#4D7DF6" stroke-miterlimit="10" stroke-width=".339" d="m58.562 14.4 16.215 9.472 17.704-10.341"/><path stroke="#4D7DF6" stroke-miterlimit="10" stroke-width=".339" d="m54.667 15.824 20.11 11.745L95.14 15.676"/><path stroke="#4D7DF6" stroke-miterlimit="10" stroke-width=".339" d="m52.572 18.293 22.205 12.962 21.746-12.694"/><path stroke="#4D7DF6" stroke-miterlimit="10" stroke-width=".339" d="m47.478 19.013 27.3 15.94L102.64 18.68"/><path stroke="#4D7DF6" stroke-miterlimit="10" stroke-width=".339" d="m43.365 20.271 31.462 18.378 31.647-18.485"/><path stroke="#4D7DF6" stroke-miterlimit="10" stroke-width=".339" d="m114.808 18.993-39.98 23.353-39.98-23.353"/><path stroke="#4D7DF6" stroke-miterlimit="10" stroke-width=".339" d="m114.808 22.69-39.98 23.364-39.98-23.364"/><path stroke="#4D7DF6" stroke-miterlimit="10" stroke-width=".339" d="m114.808 26.387-39.98 23.354-39.98-23.354"/><path stroke="#4D7DF6" stroke-miterlimit="10" stroke-width=".339" d="m114.808 30.084-39.98 23.354-39.98-23.354"/><path stroke="#4D7DF6" stroke-miterlimit="10" stroke-width=".339" d="m114.808 33.78-39.98 23.355-39.98-23.354"/><path stroke="#4D7DF6" stroke-miterlimit="10" stroke-width=".339" d="m114.808 37.478-39.98 23.354-39.98-23.354"/><path stroke="#4D7DF6" stroke-miterlimit="10" stroke-width=".339" d="m114.808 41.175-39.98 23.344-39.98-23.344"/><path stroke="#4D7DF6" stroke-miterlimit="10" stroke-width=".339" d="m114.808 44.862-39.98 23.354-39.98-23.354"/><path stroke="#4D7DF6" stroke-miterlimit="10" stroke-width=".339" d="m114.808 48.559-39.98 23.353-39.98-23.353"/><path stroke="#4D7DF6" stroke-miterlimit="10" stroke-width=".339" d="M114.808 52.256 74.828 75.62l-39.98-23.364"/><path stroke="#4D7DF6" stroke-miterlimit="10" stroke-width=".339" d="m114.808 55.953-39.98 23.364-39.98-23.364"/><path fill="url(#e)" d="m115.758 57.347-40.99-23.344-40.98 23.344v63.304l12.898 9.899 28.081-16 23.137 13.18 6.112-4.386 11.742-9.119V57.347Z"/><path stroke="#4D7DF6" stroke-miterlimit="10" stroke-width=".339" d="M48.307 128.161 74.99 112.58l25.854 15.103"/><path stroke="#4D7DF6" stroke-miterlimit="10" stroke-width=".339" d="m48.424 124.378 26.565-15.506 25.663 14.995"/><path stroke="#4D7DF6" stroke-miterlimit="10" stroke-width=".339" d="m46.812 121.636 28.178-16.45 28.756 16.793"/><path stroke="#4D7DF6" stroke-miterlimit="10" stroke-width=".339" d="M42.181 120.654 75 101.489l31.548 18.428"/><path stroke="#4D7DF6" stroke-miterlimit="10" stroke-width=".339" d="M35.01 121.145 75 97.792l39.979 23.353"/><path stroke="#4D7DF6" stroke-miterlimit="10" stroke-width=".339" d="M35.01 117.448 75 94.095l39.979 23.353"/><path stroke="#4D7DF6" stroke-miterlimit="10" stroke-width=".339" d="M35.01 113.751 75 90.397l39.979 23.354"/><path stroke="#4D7DF6" stroke-miterlimit="10" stroke-width=".339" d="M35.01 110.054 75 86.71l39.979 23.344"/><path stroke="#4D7DF6" stroke-miterlimit="10" stroke-width=".339" d="M35.01 106.337 75 82.983l39.979 23.354"/><path stroke="#4D7DF6" stroke-miterlimit="10" stroke-width=".339" d="M35.01 102.67 75 79.316l39.979 23.354"/><path stroke="#4D7DF6" stroke-miterlimit="10" stroke-width=".339" d="M35.01 98.973 75 75.619l39.979 23.354"/><path stroke="#4D7DF6" stroke-miterlimit="10" stroke-width=".339" d="M35.01 95.276 75 71.922l39.979 23.354"/><path stroke="#4D7DF6" stroke-miterlimit="10" stroke-width=".339" d="M35.01 91.579 75 68.225l39.979 23.354"/><path stroke="#4D7DF6" stroke-miterlimit="10" stroke-width=".339" d="M35.01 87.882 75 64.53l39.979 23.353"/><path stroke="#4D7DF6" stroke-miterlimit="10" stroke-width=".339" d="M35.01 84.185 75 60.831l39.979 23.354"/><path stroke="#4D7DF6" stroke-miterlimit="10" stroke-width=".339" d="M35.01 80.488 75 57.135l39.979 23.353"/><path stroke="#4D7DF6" stroke-miterlimit="10" stroke-width=".339" d="M35.01 76.791 75 53.448l39.979 23.343"/><path stroke="#4D7DF6" stroke-miterlimit="10" stroke-width=".339" d="M35.01 73.104 75 49.751l39.979 23.353"/><path stroke="#4D7DF6" stroke-miterlimit="10" stroke-width=".339" d="M35.01 69.407 75 46.054l39.979 23.353"/><path stroke="#4D7DF6" stroke-miterlimit="10" stroke-width=".339" d="M35.01 65.71 75 42.346l39.979 23.364"/><path stroke="#4D7DF6" stroke-miterlimit="10" stroke-width=".339" d="M35.01 62.014 75 38.65l39.979 23.364"/><path stroke="#4D7DF6" stroke-miterlimit="10" stroke-width=".339" d="M35.01 58.316 75 34.963l39.979 23.353"/><path fill="url(#f)" d="M133.74 25.613a3.34 3.34 0 0 0-1.523-1.238L75.819 1.19a2.485 2.485 0 0 0-1.904 0L17.517 24.375c-.62.251-1.151.683-1.524 1.238a3.428 3.428 0 0 0-.57 1.905v57.92c0 10.522 6.55 27.871 25.137 42.078a195.509 195.509 0 0 0 34.278 21.138 195.518 195.518 0 0 0 34.279-21.138c18.577-14.207 25.137-31.556 25.137-42.077v-57.94a3.4 3.4 0 0 0-.514-1.886Zm-5.174 58.083c0 8.799-5.686 26.56-21.216 38.481-8.93 6.868-22.304 15.465-32.455 20.353-10.147-4.888-23.474-12.945-32.402-19.814-15.54-11.883-21.258-30.183-21.258-39.02V31.302c.004-.56.173-1.106.485-1.571.31-.466.751-.83 1.267-1.048L74.105 8.31c.254-.102.526-.153.8-.152.274-.002.546.05.8.152l51.118 20.373c.519.216.963.58 1.276 1.048.317.463.486 1.01.486 1.57l-.019 52.395Z"/><path fill="url(#g)" d="M134.062 25.959a3.337 3.337 0 0 0-1.524-1.238L76.141 1.535a2.485 2.485 0 0 0-1.905 0L17.84 24.721c-.62.25-1.151.682-1.524 1.238a3.428 3.428 0 0 0-.571 1.904v57.921c0 10.522 6.55 27.871 25.137 42.077A195.507 195.507 0 0 0 75.16 149a195.532 195.532 0 0 0 34.279-21.139c18.577-14.206 25.137-31.555 25.137-42.077v-57.94a3.4 3.4 0 0 0-.514-1.885Zm-9.122 58.083c0 8.798-5.494 23.309-21.024 35.231a163.37 163.37 0 0 1-28.699 17.682 163.268 163.268 0 0 1-28.689-17.682c-15.54-11.883-21.024-26.395-21.024-35.23V35.594c.004-.56.173-1.106.485-1.571.31-.466.751-.83 1.267-1.047l47.17-19.387c.255-.102.527-.153.8-.152.275-.002.546.05.8.152l47.171 19.387c.52.215.964.58 1.277 1.047.316.463.485 1.01.485 1.571l-.019 48.447Z"/><g filter="url(#h)"><path fill="#fff" d="M129.849 28.872a3.133 3.133 0 0 0-1.424-1.162L75.758 6.063a2.303 2.303 0 0 0-1.758 0L21.333 27.71a3.202 3.202 0 0 0-1.424 1.162 3.172 3.172 0 0 0-.526 1.757v54.092c0 9.818 6.061 26.02 23.465 39.293a182.013 182.013 0 0 0 32.03 19.737 182.007 182.007 0 0 0 32.031-19.737c17.344-13.273 23.475-29.475 23.475-39.293V30.629a3.186 3.186 0 0 0-.535-1.757Zm-1.246 56.34c0 9.334-6.805 24.728-23.29 37.375a172.746 172.746 0 0 1-30.434 18.757 173.162 173.162 0 0 1-30.435-18.757c-16.485-12.606-23.29-28-23.29-37.374V31.845a3.03 3.03 0 0 1 .515-1.667 3.03 3.03 0 0 1 1.344-1.111L74.04 8.5a2.192 2.192 0 0 1 1.677 0l51.028 20.566a3.085 3.085 0 0 1 1.353 1.11c.328.495.504 1.074.505 1.668v53.368Z"/></g><path fill="#1F1D20" d="M118.428 86.182c0 7.689-4.793 20.37-18.373 30.788a142.433 142.433 0 0 1-25.072 15.453 141.859 141.859 0 0 1-25.056-15.494c-13.58-10.385-18.373-23.067-18.373-30.789V43.802c.001-.489.146-.966.416-1.373a2.43 2.43 0 0 1 1.115-.907l41.224-16.95a1.865 1.865 0 0 1 1.373 0l41.223 16.95c.456.18.846.497 1.115.907.273.406.421.883.425 1.373l-.017 42.38Z" opacity=".15"/><path fill="url(#i)" d="M118.428 82.258c0 7.69-4.793 20.371-18.373 30.789A142.488 142.488 0 0 1 74.983 128.5a141.859 141.859 0 0 1-25.055-15.494c-13.58-10.385-18.374-23.067-18.374-30.79V39.879c.002-.488.146-.966.416-1.373.272-.408.66-.724 1.115-.907l41.224-16.95a1.865 1.865 0 0 1 1.373 0l41.224 16.95c.456.18.845.498 1.115.907.273.406.42.884.424 1.373l-.017 42.38Z"/><g filter="url(#j)"><path fill="#fff" d="M112.332 80.295c0 6.61-4.12 17.511-15.794 26.467a122.48 122.48 0 0 1-21.553 13.284 121.947 121.947 0 0 1-21.538-13.32c-11.675-8.927-15.795-19.829-15.795-26.467V67.548h74.694l-.014 12.747Z"/></g><path fill="#1F1D20" fill-rule="evenodd" d="M63.978 42.475v-6.32h-1.46l-1.912 4.685-1.818-4.686h-1.576v6.321h1.007V37.52l2 4.956h.73l1.956-4.956v4.956h1.073Zm1.095-6.277a.553.553 0 0 0-.19.438.73.73 0 0 0 .19.453.604.604 0 0 0 .453.175.664.664 0 0 0 .611-.373.554.554 0 0 0 .045-.24.606.606 0 0 0-.19-.438.598.598 0 0 0-.467-.19.65.65 0 0 0-.452.182v-.007Zm.993 6.277v-4.532H65v4.532h1.066Zm3.758-.89c-.166.07-.344.11-.525.117a1.46 1.46 0 0 1-1.044-.38 1.46 1.46 0 0 1-.365-1.066c-.022-.41.12-.811.394-1.117a1.336 1.336 0 0 1 1.03-.408c.18-.002.359.033.525.102.177.07.344.163.496.277v-1.014a2.923 2.923 0 0 0-.481-.175 2.792 2.792 0 0 0-.599-.073 2.313 2.313 0 0 0-1.817.73 2.583 2.583 0 0 0-.642 1.802 2.19 2.19 0 0 0 .627 1.606 2.146 2.146 0 0 0 1.62.628c.246 0 .49-.024.73-.073.206-.04.403-.114.584-.219v-.993c-.165.11-.344.199-.532.263v-.007Zm3.782-3.7a1.184 1.184 0 0 0-.234 0 1.285 1.285 0 0 0-.73.204 1.372 1.372 0 0 0-.438.583v-.73h-1.066v4.533h1.066v-2.277a1.62 1.62 0 0 1 .278-1.03.818.818 0 0 1 .656-.335c.134-.007.268.013.394.058a.992.992 0 0 1 .249.117v-1.08l-.175-.044Zm.86.612a2.468 2.468 0 0 0-.627 1.788 2.292 2.292 0 0 0 .628 1.694 2.248 2.248 0 0 0 1.664.613 2.307 2.307 0 0 0 1.73-.657 2.408 2.408 0 0 0 .627-1.752 2.387 2.387 0 0 0-.605-1.715 2.146 2.146 0 0 0-1.65-.628 2.336 2.336 0 0 0-1.766.665v-.008Zm.804 2.825a1.59 1.59 0 0 1-.322-1.08 1.548 1.548 0 0 1 .336-1.102 1.102 1.102 0 0 1 .905-.395 1.068 1.068 0 0 1 .876.365c.239.316.353.708.321 1.102.03.395-.079.787-.306 1.11a1.09 1.09 0 0 1-.89.38 1.169 1.169 0 0 1-.92-.373v-.007Zm4.941-1.818a.46.46 0 0 1-.146-.364.467.467 0 0 1 .16-.35.818.818 0 0 1 .468-.118c.19 0 .377.035.555.103.172.068.338.15.496.248v-1.008a3.016 3.016 0 0 0-.496-.13 2.318 2.318 0 0 0-.526-.06c-.452-.02-.896.12-1.255.395a1.242 1.242 0 0 0-.482 1.007c-.01.284.078.562.248.788.224.257.51.45.832.562.24.085.465.203.672.35a.445.445 0 0 1 .175.366.358.358 0 0 1-.175.336.977.977 0 0 1-.526.102 1.971 1.971 0 0 1-.613-.117 2.553 2.553 0 0 1-.628-.321v1.05c.187.083.383.141.584.176.207.044.417.068.628.073.475.026.944-.113 1.328-.394a1.203 1.203 0 0 0 .497-1.022 1.183 1.183 0 0 0-.263-.774 2.227 2.227 0 0 0-.89-.576 2.497 2.497 0 0 1-.643-.314v-.008Zm2.876-1.007a2.468 2.468 0 0 0-.628 1.788 2.348 2.348 0 0 0 .628 1.694 2.247 2.247 0 0 0 1.664.613 2.275 2.275 0 0 0 1.723-.657 2.387 2.387 0 0 0 .635-1.752 2.387 2.387 0 0 0-.606-1.715 2.147 2.147 0 0 0-1.65-.628 2.335 2.335 0 0 0-1.766.665v-.008Zm.803 2.825a1.591 1.591 0 0 1-.321-1.08 1.62 1.62 0 0 1 .335-1.102 1.102 1.102 0 0 1 .905-.395 1.067 1.067 0 0 1 .876.365c.239.316.353.708.322 1.102.029.395-.08.787-.307 1.11a1.089 1.089 0 0 1-.89.38 1.169 1.169 0 0 1-.92-.373v-.007Zm5.16-2.504h1.591v2.3c-.029.39.091.776.336 1.08a1.27 1.27 0 0 0 1.007.365c.157 0 .314-.015.468-.044.117-.014.23-.049.335-.102v-.876a1.13 1.13 0 0 1-.233.102.732.732 0 0 1-.22.044.607.607 0 0 1-.48-.175.854.854 0 0 1-.147-.584v-2.102h1.08v-.876h-1.08V36.6l-1.066.32v1.03h-1.59v-.584a.964.964 0 0 1 .174-.62.656.656 0 0 1 .511-.205.97.97 0 0 1 .307.044l.19.073v-.92a1.166 1.166 0 0 0-.263-.058 2.56 2.56 0 0 0-.35 0 1.598 1.598 0 0 0-1.183.452 1.577 1.577 0 0 0-.467 1.175v.628h-.73v.876h.73v3.65h1.08v-3.643Z" clip-rule="evenodd"/><path fill="#fff" d="M37.648 57.249h74.704v13.128H37.648z"/><path fill="url(#k)" d="M109.432 61.366h8.993v19.253h-8.993V61.366Z"/><path fill="url(#l)" d="M31.554 61.366h8.993v19.253h-8.993V61.366Z"/><g filter="url(#m)"><path fill="#fff" d="M73.528 75.985c.137-.299.352-.555.621-.743a1.7 1.7 0 0 1 .919-.27c.33 0 .653.094.931.27.27.185.48.443.608.743l2.404 5.402a.837.837 0 0 0 .283.364c.132.094.286.15.446.163l5.996.5c.33.031.645.158.905.364.254.216.445.496.554.81.088.323.088.663 0 .986a1.729 1.729 0 0 1-.54.81l-4.484 3.728c-.122.11-.214.25-.27.405a.851.851 0 0 0 0 .486l1.35 5.618a1.688 1.688 0 0 1-.635 1.742c-.262.196-.577.31-.904.324a1.689 1.689 0 0 1-.946-.216l-5.334-3.052a.825.825 0 0 0-.864 0l-5.402 3.052a1.661 1.661 0 0 1-2.417-.891 1.662 1.662 0 0 1 0-.96l1.35-5.617a.851.851 0 0 0 0-.486 1.014 1.014 0 0 0-.27-.405l-4.483-3.728a1.701 1.701 0 0 1-.54-.823 1.823 1.823 0 0 1 0-.973 1.69 1.69 0 0 1 1.471-1.175l5.996-.5a.892.892 0 0 0 .446-.162.986.986 0 0 0 .297-.364l2.512-5.402Z"/><path stroke="#fff" stroke-width="1.442" d="M75.067 74.251c.467 0 .924.133 1.318.382l.011.007.011.008c.38.26.677.622.859 1.044l2.404 5.402.005.012.005.013c.007.018.02.034.035.046a.171.171 0 0 0 .083.03h.002l5.996.5h.01a2.45 2.45 0 0 1 1.282.517l.01.008.01.009c.308.262.55.591.706.962l.062.162.008.023.007.023c.121.447.121.918 0 1.364l-.008.026a2.45 2.45 0 0 1-.766 1.148l-.002.002-4.458 3.705-.046.054a.285.285 0 0 0-.022.042.13.13 0 0 0-.002.02l.005.037.006.019.004.019 1.35 5.618.001.002a2.411 2.411 0 0 1-.905 2.484c-.373.281-.823.443-1.29.467h-.004l-.01.002v-.001a2.407 2.407 0 0 1-1.333-.309h-.003l-5.334-3.054-.01-.005-.01-.006a.103.103 0 0 0-.054-.016.103.103 0 0 0-.054.016l-.023.013L69.52 98.1a2.38 2.38 0 0 1-3.454-1.286l-.007-.025a2.38 2.38 0 0 1-.011-1.335l1.35-5.618.004-.02.006-.018a.13.13 0 0 0 .002-.057.291.291 0 0 0-.067-.096h-.001l-4.457-3.705-.002-.002a2.423 2.423 0 0 1-.712-1.003l-.06-.182a2.543 2.543 0 0 1 0-1.356l.003-.013.004-.011a2.41 2.41 0 0 1 2.1-1.677l5.996-.5h.002a.17.17 0 0 0 .078-.028.261.261 0 0 0 .068-.085l2.512-5.4c.19-.416.49-.772.864-1.032l.011-.007.01-.008c.39-.25.845-.383 1.308-.384Z"/></g><path fill="url(#n)" d="M73.528 75.985c.137-.299.352-.555.621-.743a1.7 1.7 0 0 1 .919-.27c.33 0 .653.094.931.27.27.185.48.443.608.743l2.404 5.402a.837.837 0 0 0 .283.364c.132.094.286.15.446.163l5.996.5c.33.031.645.158.905.364.254.216.445.496.554.81.088.323.088.663 0 .986a1.729 1.729 0 0 1-.54.81l-4.484 3.728c-.122.11-.214.25-.27.405a.851.851 0 0 0 0 .486l1.35 5.618a1.688 1.688 0 0 1-.635 1.742c-.262.196-.577.31-.904.324a1.689 1.689 0 0 1-.946-.216l-5.334-3.052a.825.825 0 0 0-.864 0l-5.402 3.052a1.661 1.661 0 0 1-2.417-.891 1.662 1.662 0 0 1 0-.96l1.35-5.617a.851.851 0 0 0 0-.486 1.014 1.014 0 0 0-.27-.405l-4.483-3.728a1.701 1.701 0 0 1-.54-.823 1.823 1.823 0 0 1 0-.973 1.69 1.69 0 0 1 1.471-1.175l5.996-.5a.892.892 0 0 0 .446-.162.986.986 0 0 0 .297-.364l2.512-5.402Z"/><path fill="#141D2F" d="M84.099 48.208v-2.801h.808c1.033 0 1.55.455 1.55 1.365 0 .433-.144.78-.43 1.043-.287.262-.671.393-1.153.393H84.1Zm.463-2.407v2.014h.37c.328 0 .581-.09.763-.27.182-.179.273-.433.273-.761 0-.655-.34-.983-1.018-.983h-.388ZM83 48.208h-1.572v-2.801h1.51v.395h-1.045v.792h.963v.393h-.963v.828h1.108v.393ZM80.137 48.208h-.478v-2.801h.478v2.8ZM78.56 45.801h-1.046v.842h.965v.393h-.965v1.172h-.465v-2.801h1.511v.395ZM75.757 48.208h-.478v-2.801h.478v2.8ZM74.27 45.801h-.804v2.407h-.465V45.8h-.803v-.394h2.073v.395ZM71.64 48.208h-.543l-.448-.75a1.427 1.427 0 0 0-.119-.176.653.653 0 0 0-.117-.121.386.386 0 0 0-.129-.069.541.541 0 0 0-.158-.021h-.188v1.137h-.463v-2.801h.922c.132 0 .253.016.363.047.111.031.208.079.29.142a.641.641 0 0 1 .191.237c.047.093.07.203.07.33 0 .099-.015.19-.045.273a.699.699 0 0 1-.32.385.957.957 0 0 1-.256.105v.008c.051.029.095.06.133.096a1.148 1.148 0 0 1 .207.23c.034.046.071.1.111.16l.498.788Zm-1.702-2.424v.91h.387a.565.565 0 0 0 .197-.033.435.435 0 0 0 .262-.248.523.523 0 0 0 .037-.201.4.4 0 0 0-.127-.315c-.085-.075-.206-.113-.365-.113h-.39ZM68.377 48.208h-1.572v-2.801h1.51v.395H67.27v.792h.963v.393h-.963v.828h1.107v.393ZM65.674 48.09c-.211.11-.474.165-.787.165-.407 0-.732-.129-.977-.385-.245-.257-.367-.593-.367-1.01 0-.448.137-.81.412-1.086.276-.276.624-.414 1.045-.414.27 0 .495.038.674.115v.461a1.202 1.202 0 0 0-.625-.168c-.304 0-.55.097-.739.291-.187.194-.28.454-.28.778 0 .308.087.554.263.738.176.182.407.273.693.273.265 0 .494-.062.688-.187v.43ZM96.652 64.692h-1.939v-3.501h.581v3.01h1.358v.491ZM93.48 64.692h-.637l-.315-.891H91.15l-.303.891h-.635l1.311-3.501h.655l1.301 3.501Zm-1.106-1.365-.486-1.396a1.646 1.646 0 0 1-.046-.22h-.01c-.015.093-.03.166-.049.22l-.48 1.396h1.071ZM88.985 64.692h-.635l-1.672-2.573a1.136 1.136 0 0 1-.105-.203h-.015c.013.075.02.235.02.481v2.295h-.562v-3.501h.676l1.617 2.512c.068.104.112.176.131.215h.01a3.109 3.109 0 0 1-.024-.471V61.19h.559v3.501ZM82.93 64.75c-.505 0-.91-.163-1.214-.49-.302-.327-.454-.753-.454-1.277 0-.563.155-1.012.464-1.348.31-.335.73-.503 1.26-.503.491 0 .887.163 1.186.489.302.325.452.75.452 1.276 0 .572-.154 1.023-.461 1.355-.308.333-.719.499-1.233.499Zm.026-3.107c-.32 0-.581.12-.783.358-.2.24-.3.555-.3.945 0 .39.097.703.292.94.196.238.451.357.767.357.335 0 .6-.113.794-.34.193-.226.29-.542.29-.95 0-.418-.094-.74-.283-.969-.187-.227-.446-.341-.776-.341ZM79.873 64.692h-.599v-3.501h.599v3.501ZM75.641 64.553v-.598a.94.94 0 0 0 .19.132 1.617 1.617 0 0 0 .716.183c.244 0 .425-.041.544-.123a.4.4 0 0 0 .181-.354.374.374 0 0 0-.061-.214.602.602 0 0 0-.166-.169 1.664 1.664 0 0 0-.254-.144 12.03 12.03 0 0 0-.31-.146 5.136 5.136 0 0 1-.332-.193 1.497 1.497 0 0 1-.269-.215.955.955 0 0 1-.178-.269.885.885 0 0 1-.063-.349c0-.164.036-.306.11-.427a.939.939 0 0 1 .293-.3c.122-.08.26-.139.415-.176.154-.04.312-.059.473-.059.366 0 .633.042.801.125v.574c-.199-.144-.454-.215-.767-.215a1.39 1.39 0 0 0-.258.024.782.782 0 0 0-.23.08.5.5 0 0 0-.163.145.353.353 0 0 0-.064.212c0 .078.016.146.049.203.032.057.08.109.141.156.064.047.14.094.23.14.091.043.196.091.315.143.122.064.237.13.344.2.11.07.204.148.286.233a.98.98 0 0 1 .195.283c.049.102.073.22.073.351a.874.874 0 0 1-.107.45.862.862 0 0 1-.29.297c-.121.077-.26.132-.418.166a2.36 2.36 0 0 1-.5.052c-.06 0-.132-.005-.218-.015a2.593 2.593 0 0 1-.261-.04 2.237 2.237 0 0 1-.254-.06.803.803 0 0 1-.193-.083ZM72.166 64.553v-.598a.94.94 0 0 0 .19.132 1.613 1.613 0 0 0 .716.183c.244 0 .426-.041.545-.123a.4.4 0 0 0 .18-.354.374.374 0 0 0-.06-.214.602.602 0 0 0-.167-.169 1.664 1.664 0 0 0-.254-.144c-.096-.047-.199-.096-.31-.146a5.16 5.16 0 0 1-.332-.193 1.497 1.497 0 0 1-.268-.215.955.955 0 0 1-.178-.269.885.885 0 0 1-.064-.349c0-.164.037-.306.11-.427a.939.939 0 0 1 .293-.3c.122-.08.26-.139.415-.176.155-.04.312-.059.474-.059.366 0 .633.042.8.125v.574c-.198-.144-.454-.215-.766-.215a1.39 1.39 0 0 0-.259.024.782.782 0 0 0-.23.08.5.5 0 0 0-.163.145.353.353 0 0 0-.064.212c0 .078.017.146.05.203a.53.53 0 0 0 .14.156c.064.047.14.094.23.14.091.043.197.091.315.143.122.064.237.13.344.2.11.07.205.148.286.233a.98.98 0 0 1 .196.283c.048.102.073.22.073.351a.874.874 0 0 1-.108.45.862.862 0 0 1-.29.297c-.12.077-.26.132-.418.166a2.36 2.36 0 0 1-.5.052c-.059 0-.131-.005-.218-.015a2.593 2.593 0 0 1-.26-.04 2.237 2.237 0 0 1-.255-.06.803.803 0 0 1-.192-.083ZM70.955 64.692H68.99v-3.501h1.887v.493h-1.306v.991h1.203v.491h-1.203v1.035h1.384v.491ZM67.615 61.684h-1.309v1.052h1.206v.491h-1.206v1.465h-.58v-3.501h1.889v.493ZM62.639 64.75c-.505 0-.91-.163-1.214-.49-.302-.327-.454-.753-.454-1.277 0-.563.155-1.012.464-1.348.31-.335.73-.503 1.26-.503.491 0 .887.163 1.186.489.302.325.452.75.452 1.276 0 .572-.154 1.023-.461 1.355-.308.333-.719.499-1.233.499Zm.026-3.107c-.32 0-.581.12-.783.358-.2.24-.3.555-.3.945 0 .39.097.703.292.94.196.238.451.357.767.357.335 0 .6-.113.794-.34.193-.226.29-.542.29-.95 0-.418-.094-.74-.283-.969-.187-.227-.446-.341-.776-.341ZM60.084 64.692h-.678l-.56-.937a1.77 1.77 0 0 0-.148-.22.813.813 0 0 0-.147-.152.481.481 0 0 0-.16-.085.676.676 0 0 0-.199-.027h-.234v1.421h-.579v-3.501h1.153c.164 0 .316.02.454.059.138.039.259.098.361.178a.8.8 0 0 1 .24.295.912.912 0 0 1 .087.413c0 .123-.018.237-.056.342a.87.87 0 0 1-.156.276.94.94 0 0 1-.244.205c-.095.056-.201.1-.32.131v.01a.87.87 0 0 1 .166.12c.047.042.092.086.134.132.043.045.084.097.125.156.042.057.088.124.139.2l.622.984Zm-2.126-3.03V62.8h.483c.09 0 .172-.014.247-.042a.54.54 0 0 0 .327-.31.651.651 0 0 0 .047-.251.5.5 0 0 0-.16-.393c-.105-.095-.257-.142-.456-.142h-.488ZM54.283 63.422v1.27h-.578v-3.501h1.062c.402 0 .713.094.935.28.221.188.332.452.332.792s-.116.618-.347.835c-.231.216-.544.324-.938.324h-.466Zm0-1.752v1.279h.376c.25 0 .439-.058.569-.173.13-.116.195-.279.195-.489 0-.412-.239-.617-.717-.617h-.423ZM90.318 58.553v-.598a.937.937 0 0 0 .19.132 1.616 1.616 0 0 0 .716.183c.244 0 .426-.041.545-.123a.4.4 0 0 0 .18-.353.374.374 0 0 0-.06-.215.603.603 0 0 0-.167-.169 1.67 1.67 0 0 0-.254-.144c-.096-.047-.2-.096-.31-.146a5.132 5.132 0 0 1-.332-.193 1.494 1.494 0 0 1-.268-.215.953.953 0 0 1-.179-.269.885.885 0 0 1-.063-.349c0-.164.037-.306.11-.427a.938.938 0 0 1 .293-.3c.122-.08.26-.139.415-.176.154-.04.312-.059.473-.059.367 0 .634.042.801.125v.574c-.198-.144-.454-.215-.766-.215-.087 0-.173.008-.26.024a.785.785 0 0 0-.229.08.501.501 0 0 0-.163.145.353.353 0 0 0-.064.212c0 .078.016.146.05.203a.53.53 0 0 0 .14.156c.064.047.14.094.23.14.091.043.196.091.315.143.122.064.237.13.344.2.11.07.205.148.286.233a.98.98 0 0 1 .195.283c.05.102.074.22.074.351a.873.873 0 0 1-.108.45.862.862 0 0 1-.29.297c-.12.077-.26.132-.418.166a2.359 2.359 0 0 1-.5.052 1.98 1.98 0 0 1-.218-.015 2.595 2.595 0 0 1-.26-.04 2.242 2.242 0 0 1-.255-.06.804.804 0 0 1-.193-.083ZM86.844 58.553v-.598a.937.937 0 0 0 .19.132 1.611 1.611 0 0 0 .715.183c.245 0 .426-.041.545-.123a.4.4 0 0 0 .18-.353.374.374 0 0 0-.06-.215.603.603 0 0 0-.166-.169 1.674 1.674 0 0 0-.254-.144c-.096-.047-.2-.096-.31-.146a5.132 5.132 0 0 1-.332-.193 1.494 1.494 0 0 1-.269-.215.953.953 0 0 1-.178-.269.885.885 0 0 1-.064-.349c0-.164.037-.306.11-.427a.938.938 0 0 1 .293-.3c.122-.08.26-.139.415-.176.155-.04.313-.059.474-.059.366 0 .633.042.8.125v.574c-.198-.144-.454-.215-.766-.215-.086 0-.172.008-.259.024a.785.785 0 0 0-.23.08.501.501 0 0 0-.163.145.353.353 0 0 0-.063.212c0 .078.016.146.049.203.032.057.08.109.141.156.064.047.14.094.23.14.09.043.196.091.314.143.123.064.237.13.345.2.109.07.204.148.285.233a.98.98 0 0 1 .196.283c.049.102.073.22.073.351a.873.873 0 0 1-.107.45.862.862 0 0 1-.291.297c-.12.077-.26.132-.418.166a2.359 2.359 0 0 1-.5.052c-.059 0-.131-.005-.217-.015a2.59 2.59 0 0 1-.262-.04 2.242 2.242 0 0 1-.253-.06.804.804 0 0 1-.193-.083ZM85.632 58.692h-1.965v-3.501h1.887v.493h-1.306v.991h1.204v.491h-1.204v1.035h1.384v.491ZM82.048 58.692h-.635l-1.672-2.573a1.143 1.143 0 0 1-.105-.203h-.015c.013.075.02.235.02.481v2.295h-.562v-3.501h.676l1.617 2.512c.068.104.112.176.131.215h.01a3.109 3.109 0 0 1-.024-.471V55.19h.559v3.501ZM77.465 58.692h-.598v-3.501h.598v3.501ZM73.233 58.553v-.598a.94.94 0 0 0 .19.132 1.616 1.616 0 0 0 .716.183c.244 0 .426-.041.545-.123a.4.4 0 0 0 .18-.353.374.374 0 0 0-.06-.215.602.602 0 0 0-.167-.169 1.664 1.664 0 0 0-.254-.144c-.096-.047-.2-.096-.31-.146a5.16 5.16 0 0 1-.332-.193 1.497 1.497 0 0 1-.268-.215.955.955 0 0 1-.179-.269.885.885 0 0 1-.063-.349c0-.164.037-.306.11-.427a.938.938 0 0 1 .293-.3c.122-.08.26-.139.415-.176.154-.04.312-.059.473-.059.367 0 .634.042.801.125v.574c-.198-.144-.454-.215-.766-.215a1.39 1.39 0 0 0-.26.024.782.782 0 0 0-.229.08.5.5 0 0 0-.163.145.353.353 0 0 0-.064.212c0 .078.017.146.05.203a.53.53 0 0 0 .14.156c.064.047.14.094.23.14.091.043.196.091.315.143.122.064.237.13.344.2.11.07.205.148.286.233a.98.98 0 0 1 .195.283c.05.102.074.22.074.351a.874.874 0 0 1-.108.45.862.862 0 0 1-.29.297c-.12.077-.26.132-.418.166a2.36 2.36 0 0 1-.5.052c-.059 0-.131-.005-.218-.015a2.593 2.593 0 0 1-.26-.04 2.237 2.237 0 0 1-.255-.06.803.803 0 0 1-.193-.083ZM71.822 57.276c0 .983-.466 1.475-1.397 1.475-.892 0-1.338-.473-1.338-1.419v-2.141h.581v2.021c0 .687.267 1.03.801 1.03.515 0 .772-.33.772-.993v-2.058h.58v2.085ZM65.356 58.692v-3.501h1.111c.339 0 .607.074.803.222a.69.69 0 0 1 .298.579.826.826 0 0 1-.168.517.91.91 0 0 1-.466.313v.01c.24.027.433.117.576.268.145.15.217.345.217.586 0 .3-.118.542-.354.728-.236.185-.534.278-.894.278h-1.123Zm.58-3.035v.996h.375c.202 0 .36-.047.474-.141a.498.498 0 0 0 .173-.406c0-.299-.2-.449-.6-.449h-.423Zm0 1.463v1.108h.495c.216 0 .383-.05.5-.149.119-.1.178-.24.178-.415 0-.363-.251-.544-.754-.544h-.42ZM61.615 58.692h-.598v-3.501h.598v3.501ZM59.786 58.692h-.637l-.315-.891h-1.377l-.303.891h-.635l1.312-3.501h.654l1.301 3.501Zm-1.106-1.365-.486-1.396a1.663 1.663 0 0 1-.046-.22h-.01c-.014.093-.03.166-.049.22l-.48 1.396h1.071Z"/></g><defs><linearGradient id="b" x1="101.073" x2="100.796" y1="-28.355" y2="227.258" gradientUnits="userSpaceOnUse"><stop offset=".032"/><stop offset=".384" stop-color="#091F2C"/><stop offset=".983" stop-color="#0078D4"/></linearGradient><linearGradient id="c" x1="69.116" x2="70.37" y1="7.014" y2="206.784" gradientUnits="userSpaceOnUse"><stop offset=".088"/><stop offset=".476" stop-color="#091F2C"/><stop offset=".89" stop-color="#0078D4"/></linearGradient><linearGradient id="d" x1="69.609" x2="70.108" y1="-19.331" y2="130.116" gradientUnits="userSpaceOnUse"><stop offset=".088"/><stop offset=".572" stop-color="#091F2C"/><stop offset="1" stop-color="#0078D4"/></linearGradient><linearGradient id="e" x1="80.339" x2="84.054" y1="-41.088" y2="198.453" gradientUnits="userSpaceOnUse"><stop offset=".088"/><stop offset=".541" stop-color="#091F2C"/><stop offset=".803" stop-color="#04528C"/></linearGradient><linearGradient id="f" x1="47.678" x2="354.641" y1="-170.269" y2="-73.609" gradientUnits="userSpaceOnUse"><stop offset=".167" stop-color="#FF5C39"/><stop offset=".381" stop-color="#F4364C"/><stop offset=".605" stop-color="#C73ECC"/><stop offset=".834" stop-color="#0078D4"/></linearGradient><linearGradient id="g" x1="48" x2="354.963" y1="-169.924" y2="-73.263" gradientUnits="userSpaceOnUse"><stop offset=".167" stop-color="#FF5C39"/><stop offset=".381" stop-color="#F4364C"/><stop offset=".605" stop-color="#C73ECC"/><stop offset=".834" stop-color="#0078D4"/></linearGradient><linearGradient id="i" x1="73.193" x2="75.67" y1="26.64" y2="195.703" gradientUnits="userSpaceOnUse"><stop offset=".2" stop-color="#fff"/><stop offset=".63" stop-color="#F4F3F5"/><stop offset="1" stop-color="#E8E6DF"/></linearGradient><linearGradient id="k" x1="113.928" x2="113.928" y1="61.366" y2="80.619" gradientUnits="userSpaceOnUse"><stop offset=".294" stop-color="#fff"/><stop offset=".866" stop-color="#fff" stop-opacity="0"/></linearGradient><linearGradient id="l" x1="36.051" x2="36.051" y1="61.366" y2="80.619" gradientUnits="userSpaceOnUse"><stop offset=".294" stop-color="#fff"/><stop offset=".866" stop-color="#fff" stop-opacity="0"/></linearGradient><linearGradient id="n" x1="59.733" x2="92.714" y1="71.856" y2="116.797" gradientUnits="userSpaceOnUse"><stop offset=".11" stop-color="#FF5C39"/><stop offset=".33" stop-color="#F4364C"/><stop offset=".6" stop-color="#C73ECC"/><stop offset="1" stop-color="#0078D4"/></linearGradient><filter id="h" width="125.804" height="153.652" x="17.41" y="4.902" color-interpolation-filters="sRGB" filterUnits="userSpaceOnUse"><feFlood flood-opacity="0" result="BackgroundImageFix"/><feColorMatrix in="SourceAlpha" result="hardAlpha" values="0 0 0 0 0 0 0 0 0 0 0 0 0 0 0 0 0 0 127 0"/><feOffset dy=".987"/><feGaussianBlur stdDeviation=".987"/><feColorMatrix values="0 0 0 0 0 0 0 0 0 0 0 0 0 0 0 0 0 0 0.1 0"/><feBlend in2="BackgroundImageFix" result="effect1_dropShadow_35_111"/><feColorMatrix in="SourceAlpha" result="hardAlpha" values="0 0 0 0 0 0 0 0 0 0 0 0 0 0 0 0 0 0 127 0"/><feOffset dx="1.974" dy="1.974"/><feGaussianBlur stdDeviation="1.48"/><feColorMatrix values="0 0 0 0 0 0 0 0 0 0 0 0 0 0 0 0 0 0 0.09 0"/><feBlend in2="effect1_dropShadow_35_111" result="effect2_dropShadow_35_111"/><feColorMatrix in="SourceAlpha" result="hardAlpha" values="0 0 0 0 0 0 0 0 0 0 0 0 0 0 0 0 0 0 127 0"/><feOffset dx="3.947" dy="5.921"/><feGaussianBlur stdDeviation="1.974"/><feColorMatrix values="0 0 0 0 0 0 0 0 0 0 0 0 0 0 0 0 0 0 0.05 0"/><feBlend in2="effect2_dropShadow_35_111" result="effect3_dropShadow_35_111"/><feColorMatrix in="SourceAlpha" result="hardAlpha" values="0 0 0 0 0 0 0 0 0 0 0 0 0 0 0 0 0 0 127 0"/><feOffset dx="7.895" dy="9.868"/><feGaussianBlur stdDeviation="2.467"/><feColorMatrix values="0 0 0 0 0 0 0 0 0 0 0 0 0 0 0 0 0 0 0.01 0"/><feBlend in2="effect3_dropShadow_35_111" result="effect4_dropShadow_35_111"/><feBlend in="SourceGraphic" in2="effect4_dropShadow_35_111" result="shape"/></filter><filter id="j" width="89.497" height="68.287" x="35.678" y="66.561" color-interpolation-filters="sRGB" filterUnits="userSpaceOnUse"><feFlood flood-opacity="0" result="BackgroundImageFix"/><feColorMatrix in="SourceAlpha" result="hardAlpha" values="0 0 0 0 0 0 0 0 0 0 0 0 0 0 0 0 0 0 127 0"/><feOffset dy=".987"/><feGaussianBlur stdDeviation=".987"/><feColorMatrix values="0 0 0 0 0 0 0 0 0 0 0 0 0 0 0 0 0 0 0.1 0"/><feBlend in2="BackgroundImageFix" result="effect1_dropShadow_35_111"/><feColorMatrix in="SourceAlpha" result="hardAlpha" values="0 0 0 0 0 0 0 0 0 0 0 0 0 0 0 0 0 0 127 0"/><feOffset dx="1.974" dy="1.974"/><feGaussianBlur stdDeviation="1.48"/><feColorMatrix values="0 0 0 0 0 0 0 0 0 0 0 0 0 0 0 0 0 0 0.09 0"/><feBlend in2="effect1_dropShadow_35_111" result="effect2_dropShadow_35_111"/><feColorMatrix in="SourceAlpha" result="hardAlpha" values="0 0 0 0 0 0 0 0 0 0 0 0 0 0 0 0 0 0 127 0"/><feOffset dx="3.947" dy="5.921"/><feGaussianBlur stdDeviation="1.974"/><feColorMatrix values="0 0 0 0 0 0 0 0 0 0 0 0 0 0 0 0 0 0 0.05 0"/><feBlend in2="effect2_dropShadow_35_111" result="effect3_dropShadow_35_111"/><feColorMatrix in="SourceAlpha" result="hardAlpha" values="0 0 0 0 0 0 0 0 0 0 0 0 0 0 0 0 0 0 127 0"/><feOffset dx="7.895" dy="9.868"/><feGaussianBlur stdDeviation="2.467"/><feColorMatrix values="0 0 0 0 0 0 0 0 0 0 0 0 0 0 0 0 0 0 0.01 0"/><feBlend in2="effect3_dropShadow_35_111" result="effect4_dropShadow_35_111"/><feBlend in="SourceGraphic" in2="effect4_dropShadow_35_111" result="shape"/></filter><filter id="m" width="30.77" height="30.901" x="60.336" y="73.53" color-interpolation-filters="sRGB" filterUnits="userSpaceOnUse"><feFlood flood-opacity="0" result="BackgroundImageFix"/><feColorMatrix in="SourceAlpha" result="hardAlpha" values="0 0 0 0 0 0 0 0 0 0 0 0 0 0 0 0 0 0 127 0"/><feOffset dy=".481"/><feGaussianBlur stdDeviation=".24"/><feColorMatrix values="0 0 0 0 0 0 0 0 0 0 0 0 0 0 0 0 0 0 0.1 0"/><feBlend in2="BackgroundImageFix" result="effect1_dropShadow_35_111"/><feColorMatrix in="SourceAlpha" result="hardAlpha" values="0 0 0 0 0 0 0 0 0 0 0 0 0 0 0 0 0 0 127 0"/><feOffset dx=".481" dy=".961"/><feGaussianBlur stdDeviation=".481"/><feColorMatrix values="0 0 0 0 0 0 0 0 0 0 0 0 0 0 0 0 0 0 0.09 0"/><feBlend in2="effect1_dropShadow_35_111" result="effect2_dropShadow_35_111"/><feColorMatrix in="SourceAlpha" result="hardAlpha" values="0 0 0 0 0 0 0 0 0 0 0 0 0 0 0 0 0 0 127 0"/><feOffset dx=".481" dy="2.403"/><feGaussianBlur stdDeviation=".721"/><feColorMatrix values="0 0 0 0 0 0 0 0 0 0 0 0 0 0 0 0 0 0 0.05 0"/><feBlend in2="effect2_dropShadow_35_111" result="effect3_dropShadow_35_111"/><feColorMatrix in="SourceAlpha" result="hardAlpha" values="0 0 0 0 0 0 0 0 0 0 0 0 0 0 0 0 0 0 127 0"/><feOffset dx=".961" dy="3.845"/><feGaussianBlur stdDeviation=".721"/><feColorMatrix values="0 0 0 0 0 0 0 0 0 0 0 0 0 0 0 0 0 0 0.01 0"/><feBlend in2="effect3_dropShadow_35_111" result="effect4_dropShadow_35_111"/><feBlend in="SourceGraphic" in2="effect4_dropShadow_35_111" result="shape"/></filter><clipPath id="a"><path fill="#fff" d="M0 0h150v150H0z"/></clipPath></defs></svg>